<svg width="108" height="22" viewBox="0 0 108 22" fill="none" xmlns="http://www.w3.org/2000/svg"><g clip-path="url(#clip0_570_3169)"><path d="M45.3601 21.866C43.7356 21.866 42.426 21.5179 41.4314 20.8217C40.4534 20.1255 39.8152 19.1972 39.5168 18.0368L43.0476 17.8379C43.1968 18.2357 43.4538 18.5507 43.8184 18.7828C44.1831 19.0148 44.697 19.1309 45.3601 19.1309C47.283 19.1309 48.2444 18.302 48.2444 16.6444V15.1027C47.946 15.7161 47.4902 16.2134 46.8768 16.5946C46.2635 16.9593 45.4927 17.1417 44.5644 17.1417C43.5035 17.1417 42.5586 16.8764 41.7298 16.346C40.9009 15.799 40.2461 15.053 39.7654 14.1081C39.2847 13.1467 39.0443 12.0443 39.0443 10.8011C39.0443 9.45834 39.2764 8.29797 39.7406 7.31994C40.2047 6.32534 40.8429 5.56281 41.6552 5.03235C42.484 4.48532 43.4289 4.2118 44.4898 4.2118C45.3849 4.2118 46.1558 4.41901 46.8023 4.83343C47.4653 5.23127 47.9626 5.80317 48.2942 6.54912L48.3439 4.51018H51.6261V16.2217C51.6261 18.0948 51.0542 19.5039 49.9104 20.4487C48.7832 21.3936 47.2664 21.866 45.3601 21.866ZM45.4098 14.4314C46.2552 14.4314 46.9349 14.1247 47.4487 13.5114C47.9792 12.8814 48.2444 11.9531 48.2444 10.7265C48.261 9.49979 48.0041 8.5632 47.4736 7.91671C46.9432 7.27021 46.2552 6.94697 45.4098 6.94697C44.4981 6.94697 43.7936 7.27021 43.2963 7.91671C42.799 8.5632 42.5503 9.49979 42.5503 10.7265C42.5503 11.9531 42.799 12.8814 43.2963 13.5114C43.8102 14.1247 44.5147 14.4314 45.4098 14.4314ZM53.705 17.8379V15.1525H56.8878V7.19562H53.705V4.51018H59.3743L59.5732 7.09616C59.7887 6.23417 60.1534 5.58767 60.6673 5.15668C61.1812 4.72568 61.894 4.51018 62.8057 4.51018H65.7895V7.27021H63.0543C61.1977 7.27021 60.2694 8.23995 60.2694 10.1794V15.1525H64.3225V17.8379H53.705ZM73.3885 18.1363C72.1287 18.1363 71.0263 17.8545 70.0814 17.2909C69.1366 16.7107 68.3906 15.8984 67.8436 14.8541C67.3131 13.8097 67.0479 12.5831 67.0479 11.174C67.0479 9.79817 67.3131 8.58806 67.8436 7.54373C68.374 6.49939 69.1117 5.68713 70.0566 5.10695C71.0015 4.51018 72.0955 4.2118 73.3388 4.2118C74.5655 4.2118 75.6429 4.5019 76.5712 5.08208C77.5161 5.66227 78.2538 6.48282 78.7842 7.54373C79.3147 8.58806 79.5799 9.82303 79.5799 11.2486V12.094H70.529C70.6119 13.0887 70.9103 13.8512 71.4242 14.3816C71.9546 14.8955 72.6343 15.1525 73.4631 15.1525C74.0764 15.1525 74.5986 15.0116 75.0296 14.7298C75.4606 14.4314 75.759 14.0335 75.9247 13.5362L79.3064 13.76C78.8588 15.1525 78.1295 16.2299 77.1183 16.9925C76.1237 17.755 74.8804 18.1363 73.3885 18.1363ZM70.5787 9.78159H75.9745C75.8916 8.9196 75.6098 8.27311 75.1291 7.84211C74.6483 7.41112 74.0433 7.19562 73.3139 7.19562C72.5514 7.19562 71.9298 7.4194 71.449 7.86698C70.9849 8.29797 70.6948 8.93618 70.5787 9.78159ZM81.1367 21.5677V4.51018H84.394L84.4686 6.69832C84.8333 5.90263 85.3472 5.28929 86.0103 4.8583C86.6899 4.4273 87.5022 4.2118 88.4471 4.2118C89.6074 4.2118 90.5772 4.51847 91.3563 5.13181C92.152 5.74515 92.7404 6.58228 93.1217 7.64319C93.5195 8.68753 93.7185 9.86447 93.7185 11.174C93.7185 12.4836 93.5195 13.6688 93.1217 14.7298C92.7404 15.7741 92.152 16.6029 91.3563 17.2163C90.5772 17.8296 89.6074 18.1363 88.4471 18.1363C86.607 18.1363 85.2975 17.4235 84.5184 15.9979V21.5677H81.1367ZM87.4027 15.1525C88.2979 15.1525 88.9858 14.8292 89.4665 14.1827C89.9638 13.5362 90.2125 12.5333 90.2125 11.174C90.2125 9.81474 89.9638 8.81185 89.4665 8.16536C88.9858 7.51886 88.2979 7.19562 87.4027 7.19562C86.5573 7.19562 85.8611 7.51886 85.3141 8.16536C84.7836 8.81185 84.5184 9.81474 84.5184 11.174C84.5184 12.5333 84.7836 13.5362 85.3141 14.1827C85.8611 14.8292 86.5573 15.1525 87.4027 15.1525Z" fill="black"></path><path d="M21.0122 2H10.9881C6.01872 2 1.99023 6.02848 1.99023 10.9979V11.0021C1.99023 15.9715 6.01872 20 10.9881 20H21.0122C25.9816 20 30.0101 15.9715 30.0101 11.0021V10.9979C30.0101 6.02848 25.9816 2 21.0122 2Z" stroke="black" stroke-width="3.5" stroke-miterlimit="10"></path><path d="M11.6982 7.35254V14.1574" stroke="black" stroke-width="3.5" stroke-miterlimit="10"></path></g><defs><clipPath id="clip0_570_3169"><rect width="108" height="22" fill="white"></rect></clipPath></defs></svg>