<svg width="4199" height="1150" viewBox="0 0 4199 1150" fill="none" xmlns="http://www.w3.org/2000/svg">
<rect x="703" y="522" width="160" height="360" fill="#171717"/>
<rect x="80" y="334" width="1135" height="736" rx="368" stroke="#171717" stroke-width="160"/>
<path d="M1716.48 749.703H1638.26L1624.2 281.246H1731.42L1716.48 749.703ZM1741.09 869.234C1741.09 886.812 1734.94 901.754 1722.63 914.059C1710.33 926.363 1695.39 932.516 1677.81 932.516C1660.23 932.516 1645.29 926.363 1632.99 914.059C1621.27 901.754 1615.41 886.812 1615.41 869.234C1615.41 851.656 1621.56 837.008 1633.87 825.289C1646.17 812.984 1660.82 806.832 1677.81 806.832C1695.39 806.832 1710.33 812.984 1722.63 825.289C1734.94 837.008 1741.09 851.656 1741.09 869.234ZM1982.79 993.16C1988.65 1003.12 1995.97 1011.32 2004.76 1017.77C2014.14 1024.21 2023.51 1029.2 2032.89 1032.71C2042.85 1036.23 2052.52 1038.57 2061.89 1039.74C2071.85 1041.5 2080.64 1042.38 2088.26 1042.38C2124.59 1042.38 2153.01 1031.83 2173.51 1010.74C2194.02 989.645 2204.28 953.609 2204.28 902.633V879.781V878.023L2205.15 873.629C2205.15 873.043 2204.86 872.457 2204.28 871.871C2204.28 871.285 2204.28 870.699 2204.28 870.113C2202.52 877.73 2197.24 885.348 2188.46 892.965C2180.25 900.582 2169.71 907.613 2156.81 914.059C2143.92 919.918 2129.28 924.605 2112.87 928.121C2096.46 931.637 2079.47 933.395 2061.89 933.395C2029.08 933.395 2000.37 926.363 1975.76 912.301C1951.15 897.652 1930.64 878.316 1914.24 854.293C1897.83 830.27 1885.82 802.73 1878.2 771.676C1870.58 740.621 1866.78 708.102 1866.78 674.117C1866.78 628.414 1872.93 590.035 1885.23 558.98C1898.12 527.926 1914.24 502.73 1933.57 483.395C1953.49 463.473 1975.47 449.41 1999.49 441.207C2024.1 433.004 2048.12 428.902 2071.56 428.902C2100.27 428.902 2126.35 433.883 2149.78 443.844C2173.81 453.805 2191.97 466.988 2204.28 483.395L2215.7 433.297H2310.62L2309.74 929C2307.4 964.742 2300.08 995.211 2287.77 1020.41C2276.05 1045.6 2260.82 1066.4 2242.07 1082.81C2223.32 1099.21 2201.64 1110.93 2177.03 1117.96C2152.42 1125 2126.05 1128.51 2097.93 1128.51C2065.12 1128.51 2032.6 1122.65 2000.37 1110.93C1968.73 1099.8 1942.36 1080.76 1921.27 1053.8L1982.79 993.16ZM2211.31 677.633C2211.31 654.195 2208.38 632.516 2202.52 612.594C2196.66 592.672 2188.75 575.094 2178.79 559.859C2168.83 544.625 2156.52 532.613 2141.87 523.824C2127.22 515.035 2111.4 510.641 2094.41 510.641C2076.83 510.641 2060.72 515.328 2046.07 524.703C2032.01 533.492 2020 545.504 2010.04 560.738C2000.08 575.973 1992.46 593.844 1987.19 614.352C1981.91 634.859 1979.28 656.539 1979.28 679.391C1979.28 702.828 1981.91 725.094 1987.19 746.188C1993.04 766.695 2000.96 784.566 2010.92 799.801C2021.46 815.035 2033.77 827.34 2047.83 836.715C2062.48 845.504 2078.59 849.898 2096.17 849.898C2114.33 849.898 2130.45 845.504 2144.51 836.715C2158.57 827.34 2170.29 815.035 2179.67 799.801C2189.63 783.98 2197.24 765.523 2202.52 744.43C2208.38 723.336 2211.31 701.07 2211.31 677.633ZM2760.62 540.523C2744.22 535.836 2724.29 533.199 2700.86 532.613C2679.76 532.613 2658.67 535.25 2637.58 540.523C2617.07 545.211 2600.66 553.414 2588.36 565.133V753.219V754.977V929H2482.01V433.297H2576.93L2588.36 484.273C2597.15 475.484 2606.23 467.574 2615.6 460.543C2625.56 453.512 2636.99 447.945 2649.88 443.844C2662.77 439.156 2678.01 435.641 2695.58 433.297C2713.16 430.953 2734.84 429.781 2760.62 429.781V540.523ZM3081.42 428.023C3121.27 428.023 3156.42 436.227 3186.89 452.633C3217.36 468.453 3242.26 489.84 3261.6 516.793C3281.52 543.16 3295.58 573.922 3303.79 609.078C3312.58 643.648 3314.33 679.684 3309.06 717.184H2964.53C2964.53 735.934 2968.04 753.219 2975.08 769.039C2982.11 784.859 2991.48 798.629 3003.2 810.348C3015.51 821.48 3029.86 830.27 3046.27 836.715C3063.26 843.16 3081.42 846.383 3100.76 846.383C3107.21 846.383 3115.12 845.797 3124.49 844.625C3134.45 842.867 3144.71 840.23 3155.25 836.715C3166.38 832.613 3177.22 827.633 3187.77 821.773C3198.9 815.914 3208.57 808.883 3216.78 800.68L3255.45 859.566C3236.11 883.59 3213.55 901.754 3187.77 914.059C3161.99 926.363 3129.18 932.516 3089.33 932.516C3057.11 932.516 3026.93 926.07 2998.81 913.18C2970.68 899.703 2946.66 881.539 2926.74 858.688C2906.81 835.836 2890.99 809.176 2879.28 778.707C2867.56 748.238 2861.7 715.426 2861.7 680.27C2861.7 645.699 2867.56 613.18 2879.28 582.711C2890.99 551.656 2906.52 524.703 2925.86 501.852C2945.78 479 2969.22 461.129 2996.17 448.238C3023.12 434.762 3051.54 428.023 3081.42 428.023ZM3210.62 639.84C3210.62 624.02 3207.69 608.492 3201.83 593.258C3195.97 578.023 3187.77 564.254 3177.22 551.949C3167.26 539.645 3154.96 529.977 3140.31 522.945C3125.66 515.328 3109.84 511.227 3092.85 510.641C3074.69 510.641 3057.99 514.156 3042.75 521.188C3027.52 528.219 3014.33 537.594 3003.2 549.312C2992.07 561.031 2983.28 575.094 2976.83 591.5C2970.97 607.32 2968.04 623.434 2968.04 639.84H3210.62ZM3890.9 583.59C3897.93 610.543 3901.44 640.719 3901.44 674.117C3901.44 707.516 3897.34 740.035 3889.14 771.676C3881.52 802.73 3869.51 830.27 3853.1 854.293C3837.28 878.316 3817.07 897.652 3792.46 912.301C3768.44 926.363 3740.02 933.395 3707.21 933.395C3689.63 933.395 3672.63 931.637 3656.23 928.121C3639.82 924.605 3625.17 919.918 3612.28 914.059C3599.39 907.613 3588.55 900.875 3579.76 893.844C3571.56 886.227 3566.58 878.316 3564.82 870.113V1124.12H3457.6V433.297H3553.4L3564.82 483.395C3576.54 466.988 3594.12 453.805 3617.56 443.844C3641.58 433.883 3667.95 428.902 3696.66 428.902C3715.99 428.902 3735.62 431.539 3755.54 436.812C3775.47 442.086 3793.92 450.875 3810.92 463.18C3828.49 475.484 3844.31 491.598 3858.38 511.52C3872.44 531.441 3883.28 555.465 3890.9 583.59ZM3672.05 850.777C3689.63 850.777 3705.45 846.383 3719.51 837.594C3734.16 828.805 3746.46 817.086 3756.42 802.438C3766.97 787.203 3775.17 769.332 3781.03 748.824C3786.89 727.73 3789.82 705.465 3789.82 682.027C3789.82 659.176 3787.19 637.496 3781.91 616.988C3776.64 596.48 3769.02 578.316 3759.06 562.496C3749.69 546.676 3737.97 534.078 3723.9 524.703C3710.43 515.328 3694.61 510.641 3676.44 510.641C3658.87 510.641 3642.75 515.035 3628.1 523.824C3613.46 532.613 3600.86 544.625 3590.31 559.859C3579.76 574.508 3571.56 592.086 3565.7 612.594C3560.43 632.516 3557.79 654.195 3557.79 677.633C3557.79 701.07 3560.13 723.336 3564.82 744.43C3570.1 764.938 3577.71 783.102 3587.67 798.922C3597.63 814.742 3609.65 827.34 3623.71 836.715C3637.77 846.09 3653.88 850.777 3672.05 850.777Z" fill="#171717"/>
</svg>
